<?xml version="1.0" encoding="UTF-8" standalone="no"?>
<!-- Created with Inkscape (http://www.inkscape.org/) -->

<svg
   xmlns:dc="http://purl.org/dc/elements/1.1/"
   xmlns:cc="http://creativecommons.org/ns#"
   xmlns:rdf="http://www.w3.org/1999/02/22-rdf-syntax-ns#"
   xmlns:svg="http://www.w3.org/2000/svg"
   xmlns="http://www.w3.org/2000/svg"
   xmlns:sodipodi="http://sodipodi.sourceforge.net/DTD/sodipodi-0.dtd"
   xmlns:inkscape="http://www.inkscape.org/namespaces/inkscape"
   width="256"
   height="256"
   viewBox="0 0 67.733331 67.733331"
   version="1.1"
   id="svg4562"
   inkscape:version="0.92.4 (5da689c313, 2019-01-14)"
   sodipodi:docname="tesla.svg">
  <defs
     id="defs4556" />
  <sodipodi:namedview
     id="base"
     pagecolor="#ffffff"
     bordercolor="#666666"
     borderopacity="1.0"
     inkscape:pageopacity="0.0"
     inkscape:pageshadow="2"
     inkscape:zoom="1.979899"
     inkscape:cx="86.546603"
     inkscape:cy="134.4218"
     inkscape:document-units="mm"
     inkscape:current-layer="layer1"
     showgrid="false"
     inkscape:window-width="1920"
     inkscape:window-height="996"
     inkscape:window-x="-8"
     inkscape:window-y="719"
     inkscape:window-maximized="1"
     units="px" />
  <metadata
     id="metadata4559">
    <rdf:RDF>
      <cc:Work
         rdf:about="">
        <dc:format>image/svg+xml</dc:format>
        <dc:type
           rdf:resource="http://purl.org/dc/dcmitype/StillImage" />
        <dc:title></dc:title>
      </cc:Work>
    </rdf:RDF>
  </metadata>
  <g
     inkscape:label="Layer 1"
     inkscape:groupmode="layer"
     id="layer1"
     transform="translate(0,-229.26668)">
    <g
       id="T"
       transform="matrix(0.25929091,0,0,0.25929091,-11.024886,213.59634)">
      <path
         d="M 173.146,317.299 208.622,117.78 c 33.815,0 44.481,3.708 46.021,18.843 0,0 22.684,-8.458 34.125,-25.636 C 244.122,90.299 199.263,89.366 199.263,89.366 l -26.176,31.882 0.059,-0.004 -26.176,-31.883 c 0,0 -44.86,0.934 -89.5,21.622 11.431,17.178 34.124,25.636 34.124,25.636 1.549,-15.136 12.202,-18.844 45.79,-18.868 l 35.762,199.548"
         id="path35"
         style="fill:#e82127;fill-opacity:1"
         inkscape:connector-curvature="0" />
      <path
         d="m 173.132,80.157 c 36.09,-0.276 77.399,5.583 119.687,24.014 5.652,-10.173 7.105,-14.669 7.105,-14.669 C 253.697,71.213 210.406,64.954 173.127,64.797 135.85,64.954 92.561,71.214 46.34,89.502 c 0,0 2.062,5.538 7.1,14.669 42.28,-18.431 83.596,-24.29 119.687,-24.014 h 0.005"
         id="path37"
         style="fill:#e82127;fill-opacity:1"
         inkscape:connector-curvature="0" />
    </g>
  </g>
</svg>

